<svg xmlns="http://www.w3.org/2000/svg" xmlns:xlink="http://www.w3.org/1999/xlink" width="1490" height="1400"><g transform="translate(0 0)"><path d="M0 0h1490v1760H0z" fill="#fff"/><path d="M504.73 451h33.64v42.04h-33.64V451z" fill="#29aae1"/><path d="M517.57 480.2h17.1c.54 0 .54 0 .54.4s0 .4-.53.4h-17.1c-.57 0-.57 0-.57-.4s0-.4.57-.4zM517.6 482.33h17.04c.74 0 .74 0 .74.55v.12c0 .55 0 .55-.74.55H517.6c-.77 0-.77 0-.77-.55v-.12c0-.55 0-.55.77-.55zM517.67 484.98h17.07c.74 0 .74 0 .74.54v.13c0 .54 0 .54-.74.54h-17.07c-.74 0-.74 0-.74-.55v-.13c0-.54 0-.54.74-.54zM533.23 471.4c0 1.1-1.2 1.98-2.76 1.98-1.54 0-2.8-.88-2.8-1.97 0-1.08 1.26-1.96 2.8-1.96 1.55 0 2.76.88 2.76 1.97z" fill="#fff"/><path d="M532.12 471.4c0 .68-.74 1.23-1.68 1.23s-1.72-.55-1.72-1.22c0-.66.78-1.2 1.72-1.2s1.68.54 1.68 1.2z" fill="#7fcced"/><use xlink:href="#a" transform="matrix(1,0,0,1,474.7347931873478,492.9968717413997) translate(11.074999999999996 18.6)"/><path d="M758.9 303.33c21.6 0 39.23 12.33 39.23 27.58 0 15.26-17.62 27.65-39.23 27.65-21.68 0-39.23-12.4-39.23-27.64s17.55-27.57 39.23-27.57z" fill="#f58535"/><path d="M798.13 330.97v2.35c0 15.25-17.62 27.63-39.23 27.63-21.68 0-39.23-12.38-39.23-27.63v-2.35c0 15.2 17.55 27.58 39.23 27.58 21.6 0 39.23-12.4 39.23-27.58z" fill="#9e5622"/><path d="M796.26 339.34v2.4c-.78 1.67-1.8 3.27-2.96 4.82v-2.4c1.17-1.5 2.18-3.16 2.96-4.82M793.3 344.15v2.4c-6.63 8.56-19.58 14.4-34.4 14.4-21.68 0-39.23-12.38-39.23-27.63v-2.35c0 15.2 17.55 27.58 39.23 27.58 14.82 0 27.77-5.8 34.4-14.4M798.13 330.97v2.35c0 1.37-.15 2.7-.4 3.95v-2.4c.25-1.26.4-2.58.4-3.9" fill="#9e5622"/><path d="M797.74 334.87v2.4c-.4 1.55-.85 3.04-1.48 4.48v-2.4c.63-1.44 1.1-2.94 1.48-4.48" fill="#9e5622"/><path d="M783.7 321.28h-12.8v-1.84L767 323l-1.86-1.84-17.94 8.15h15.2v-1.94l8.5 2.3v-3.34h12.8v9h-12.8V332l-8.5 2.24v-1.9h-15.2l18.1 8.15 1.7-1.9 3.9 3.6v-1.83h12.8v9.06h-12.8v-3.6l-8.8-1.5 1.25-1.84-22.16-10.16v6.02H727V323.3h14.2v6l22.3-10.14-1.4-1.84 8.8-1.5v-3.6h12.8v9.06z" fill="#fff"/><use xlink:href="#b" transform="matrix(1,0,0,1,719.6666666666665,360.66666666666663) translate(22 14.4)"/><path d="M772.25 48.78c6.2 0 11.16-5 11.16-11.1s-4.95-11-11.15-11-11.16 4.9-11.16 11 4.95 11.1 11.15 11.1zM779.35 54.6H764.55c-.57 6.46-5.78 11.6-12.4 12.2V68h5.88c8.6 0 14.7 4.98 15.37 12.26h10.34V70.5h1.8v9.76h6.8V65.84c0-6.6-5.38-11.23-13-11.23zM729.67 26.67c-6.12 0-11.16 4.92-11.16 11.02s5.05 11.08 11.17 11.08c6.2 0 11.24-5 11.24-11.1s-5.03-11-11.23-11zM728.5 80.26c.68-7.28 6.8-12.27 15.4-12.27h5.86v-1.2c-6.53-.6-11.74-5.74-12.4-12.2h-14.8c-7.6 0-12.9 4.65-12.9 11.24v14.42h7.03V70.5h1.8v9.76h10z" fill="#acacac"/><path d="M751 64.52c6.12 0 11.16-5 11.16-11.1S757.12 42.35 751 42.35c-6.2 0-11.24 5-11.24 11.1S744.8 64.5 751 64.5zM758.03 70.35H743.9c-7.7 0-13 4.64-13 11.23V96h7.04v-9.78h1.82V96h22.73v-9.78h1.8V96h6.7V81.58c0-6.6-5.3-11.23-12.97-11.23z" fill="#acacac"/><use xlink:href="#c" transform="matrix(1,0,0,1,709.6666666666666,95.99999999999994) translate(18.049999999999997 14.4)"/><path d="M641 427.33c16.57 0 30 13.43 30 30v51.34c0 16.57-13.43 30-30 30H411.67c-16.57 0-30-13.43-30-30v-51.34c0-16.57 13.43-30 30-30z" stroke="#000" stroke-width="2" fill="none"/><path d="M408.55 407.33h6.08v22h-6.08v-22z" fill="#146eb4"/><path d="M402.15 417.73h37.76v23.2h-37.75v-23.2zM408.55 407.33c.64-6.8 6.08-12 12.48-12 6.72 0 12.16 5.2 12.8 12h-6.08s-.32-6.4-6.72-6.4c-6.4 0-6.4 6.4-6.4 6.4h-6.08z" fill="#146eb4"/><path d="M427.75 407.33h6.08v22h-6.08v-22z" fill="#146eb4"/><use xlink:href="#d" transform="matrix(1,0,0,1,381.66666666666663,518.6666666666666) translate(92.05 14.4)"/><use xlink:href="#e" transform="matrix(1,0,0,1,381.66666666666663,518.6666666666666) translate(143.95 14.4)"/><path d="M720.43 342h-193.9c-2.76 0-5 2.24-5 5v104" stroke="#000" stroke-width="2" fill="none"/><path d="M721.5 341.7l.7 1.3h-1.77v-2h.8zm1.93.96l-.12-.17zm-.72-1.1l-.33-.53-.02-.03h.06zM521.53 451l-4.63-14.27h9.27z"/><path d="M522.6 451h-2.12l-4.96-15.27h12.03zm-4.32-13.27l3.25 10.03 3.26-10.03z"/><path d="M740.9 620.93l-4.9 1.5v8.84l4.9-.63v-9.7z" fill="#9e5622"/><path d="M808.23 621.24l5 1.44v8.9l-5-.7v-9.64zM790.9 666.5l-16.3 5.44v-62.6l16.3 5.45v51.7z" fill="#f58535"/><path d="M780.77 632.7l27.46-1.75v-9.7l-27.46 3.8v7.66z" fill="#9e5622"/><path d="M813.22 631.58l-27.07 1.5-5.38-.37 27.77-1.75 4.68.63z" fill="#6d3b18"/><path d="M758.3 666.5l16.3 5.44v-62.6l-16.3 5.45v51.7z" fill="#9e5622"/><path d="M768.45 632.4l-27.54-1.76v-9.7l27.55 3.87v7.6z" fill="#f58535"/><path d="M736 631.27l27 1.5 5.45-.38-27.77-1.76-4.68.63z" fill="#6d3b18"/><use xlink:href="#f" transform="matrix(1,0,0,1,736.0000000000192,672.0000000000388) translate(2.5249999999999986 14.4)"/><use xlink:href="#g" transform="matrix(1,0,0,1,736.0000000000192,672.0000000000388) translate(55.475 14.4)"/><path d="M521.53 493.04v53.75c0 2.76 2.24 5 5 5h239.45c2.76 0 5 2.23 5 5v53.75" stroke="#000" stroke-width="2" fill="none"/><path d="M770.98 610.55l-4.64-14.27h9.27z"/><path d="M772.16 610.15l-2.13.72-5.07-15.6H777zm-4.44-12.87l3.26 10.03 3.25-10.02z"/><path d="M526.6 771.33c23.63 0 42.9 18.64 42.9 41.7 0 23.04-19.27 41.76-42.9 41.76-23.73 0-42.93-18.73-42.93-41.78s19.2-41.7 42.92-41.7z" fill="#f58535"/><path d="M569.5 813.1v3.56c0 23.05-19.27 41.77-42.9 41.77-23.73 0-42.93-18.72-42.93-41.77v-3.55c0 22.97 19.2 41.7 42.92 41.7 23.63 0 42.9-18.73 42.9-41.7z" fill="#9e5622"/><path d="M567.46 825.76v3.64c-.85 2.5-1.96 4.94-3.24 7.28v-3.64c1.28-2.25 2.4-4.77 3.24-7.28M564.22 833.04v3.64c-7.25 12.9-21.42 21.75-37.63 21.75-23.73 0-42.93-18.72-42.93-41.77v-3.55c0 22.97 19.2 41.7 42.92 41.7 16.2 0 30.37-8.76 37.62-21.76M569.5 813.1v3.56c0 2.08-.16 4.07-.4 5.98V819c.24-1.9.4-3.9.4-5.9M569.1 819v3.64c-.44 2.34-.95 4.6-1.64 6.76v-3.64c.7-2.17 1.2-4.42 1.63-6.76" fill="#9e5622"/><path d="M553.73 798.46h-14v-2.77l-4.27 5.36-2.04-2.77-19.63 12.3h16.63v-2.95l9.3 3.46v-5h14v13.6h-14v-5.03l-9.3 3.38v-2.86H513.8l19.8 12.3 1.86-2.87 4.27 5.46v-2.78h14v13.7h-14v-5.47l-9.64-2.25 1.35-2.77-24.23-15.34v9.1H491.7v-22.8h15.52v9.1l24.4-15.35-1.53-2.77 9.63-2.25v-5.46h14v13.7z" fill="#fff"/><use xlink:href="#b" transform="matrix(1,0,0,1,483.6666666666665,857.9999999999999) translate(26 14.4)"/><path d="M736 650.67H531.33c-2.76 0-5 2.24-5 5v115.66" stroke="#000" stroke-width="2" fill="none"/><path d="M739 651.67h-3v-2h3zM526.33 771.33l-4.63-14.26h9.27z"/><path d="M527.37 771.38l-.78-.05-1.3.04-4.98-15.3h12.03zm-4.3-13.3l3.26 10.02 3.26-10.03z"/><path d="M502.3 902c9.12 0 16.4 5.2 16.4 11.6v45.67c0 6.38-7.28 11.6-16.4 11.6h-62.88c-9.03 0-16.42-5.22-16.42-11.6V913.6c0-6.4 7.4-11.6 16.42-11.6h62.88z" fill="#f58535"/><path d="M518.7 959.27v4.04c0 6.4-7.28 11.6-16.4 11.6v-4.04c9.12 0 16.4-5.2 16.4-11.6z" fill="#9e5622"/><path d="M518.7 959.27v4.04c0 6.4-7.28 11.6-16.4 11.6v-4.04c9.12 0 16.4-5.2 16.4-11.6z" fill="#9e5622"/><path d="M518.7 959.27v4.04c0 .6-.08 1.1-.18 1.62v-4.03c.1-.53.2-1.1.2-1.63M518.52 960.9v4.02c-.1.66-.3 1.32-.58 1.9v-4.03c.3-.6.48-1.25.58-1.9" fill="#9e5622"/><path d="M517.94 962.8v4.03c-.28.73-.76 1.4-1.24 2.05v-4.03c.48-.66.96-1.32 1.24-2.06M516.7 964.85v4.03c-2.8 3.6-8.16 6-14.4 6v-4.02c6.24 0 11.6-2.42 14.4-6" fill="#9e5622"/><path d="M438.74 970.86h63.65v4.03h-63.66v-4.04z" fill="#9e5622"/><path d="M439.42 970.86v4.03c-9.03 0-16.42-5.2-16.42-11.6v-4.03c0 6.38 7.4 11.6 16.42 11.6z" fill="#9e5622"/><path d="M439.42 970.86v4.03c-9.03 0-16.42-5.2-16.42-11.6v-4.03c0 6.38 7.4 11.6 16.42 11.6z" fill="#9e5622"/><path d="M440.1 970.86v4.03c-9.04 0-17.1-5.2-17.1-11.6v-4.03c0 6.38 7.4 11.6 16.42 11.6" fill="#9e5622"/><use xlink:href="#h" transform="matrix(1,0,0,1,423.00000000003877,975.3333333332946) translate(30.525 14.4)"/><use xlink:href="#i" transform="matrix(1,0,0,1,433.00000000003877,911.9999999999611) translate(-7.472222222222221 26)"/><path d="M617.96 902.33c9.12 0 16.42 5.2 16.42 11.6v45.68c0 6.4-7.3 11.6-16.42 11.6h-62.88c-9.02 0-16.4-5.2-16.4-11.6v-45.68c0-6.38 7.38-11.6 16.4-11.6h62.88z" fill="#f58535"/><path d="M634.38 959.6v4.04c0 6.38-7.3 11.6-16.42 11.6v-4.05c9.12 0 16.42-5.2 16.42-11.6z" fill="#9e5622"/><path d="M634.38 959.6v4.04c0 6.38-7.3 11.6-16.42 11.6v-4.05c9.12 0 16.42-5.2 16.42-11.6z" fill="#9e5622"/><path d="M634.38 959.6v4.04c0 .6-.1 1.1-.2 1.6v-4.02c.1-.5.2-1.1.2-1.6" fill="#9e5622"/><path d="M634.2 961.22v4.03c-.1.66-.3 1.32-.6 1.9v-4.02c.3-.6.5-1.25.6-1.9" fill="#9e5622"/><path d="M633.6 963.13v4.03c-.28.73-.76 1.4-1.24 2.05v-4.02c.48-.66.96-1.32 1.25-2.05M632.36 965.18v4.03c-2.78 3.6-8.16 6.03-14.4 6.03v-4.04c6.24 0 11.62-2.43 14.4-6.02" fill="#9e5622"/><path d="M554.4 971.2h63.66v4.03H554.4v-4.04z" fill="#9e5622"/><path d="M555.08 971.2v4.03c-9.02 0-16.4-5.2-16.4-11.6v-4.02c0 6.4 7.38 11.6 16.4 11.6z" fill="#9e5622"/><path d="M555.08 971.2v4.03c-9.02 0-16.4-5.2-16.4-11.6v-4.02c0 6.4 7.38 11.6 16.4 11.6z" fill="#9e5622"/><path d="M555.75 971.2v4.03c-9.02 0-17.08-5.2-17.08-11.6v-4.02c0 6.4 7.4 11.6 16.4 11.6" fill="#9e5622"/><use xlink:href="#h" transform="matrix(1,0,0,1,538.6666666666665,975.6666666666667) translate(30.525 14.4)"/><use xlink:href="#j" transform="matrix(1,0,0,1,548.6666666666665,912.3333333333333) translate(-7.472222222222221 26)"/><path d="M526.33 858.42v16.8c0 2.75-2.24 5-5 5h-52.87c-2.76 0-5 2.23-5 5V902" stroke="#000" stroke-width="2" fill="none"/><path d="M526.33 858.42h-1v-.06zm1 0h-.2.2zM463.46 902l-4.63-14.27h9.27z"/><path d="M464.5 902h-2.1l-4.95-15.27h12.03zm-4.3-13.27l3.26 10.03 3.26-10.03z"/><path d="M526.33 858.42v16.96c0 2.76 2.24 5 5 5h50.34c2.76 0 5 2.23 5 5v16.95" stroke="#000" stroke-width="2" fill="none"/><path d="M526.33 858.42h-1v-.06zm1 0h-.2.2zM586.67 902.33l-4.64-14.26h9.27z"/><path d="M587.72 902.33h-2.1l-4.97-15.26h12.03zm-4.3-13.26l3.25 10.03 3.26-10.03z"/><path d="M659.17 380.33c16.57 0 30 13.43 30 30V1095c0 16.57-13.43 30-30 30H377.5c-16.57 0-30-13.43-30-30V410.33c0-16.57 13.43-30 30-30z" fill="none"/><path d="M689.17 456.9v4.67m0 23.28v46.58m0 23.3v4.65m0 23.28v46.58m0 23.3v4.65m0 23.27v46.58m0 23.3V755m0 23.28v46.58m0 23.3v4.64m0 23.3v46.57m0 23.3v4.64m0 23.3v46.58m0 23.3v4.64m0 23.3V1095l-.42 5-1.23 4.82-2 4.54-2.76 4.18-3.43 3.67-3.98 3.06-4.4 2.34-4.7 1.56-4.93.76-2.15.08H636.8m-22.34 0H610m-22.37 0h-44.7m-22.36 0h-4.47m-22.36 0h-44.7m-22.36 0h-4.47m-22.35 0H377.5l-5-.42-4.82-1.22-4.54-2-4.18-2.77-3.67-3.43-3.06-3.98-2.34-4.4-1.56-4.72-.76-4.93-.08-2.15v-23.3m0-23.28v-4.65m0-23.3V973.9m0-23.3v-4.64m0-23.3V876.1m0-23.3v-4.65m0-23.3V778.3m0-23.28v-4.66m0-23.3v-46.57m0-23.28v-4.67m0-23.3v-46.57m0-23.28v-4.66m0-23.3v-46.57m0-23.28v-4.66m0-23.28v-23.3l.42-5 1.22-4.8 2-4.55 2.77-4.17 3.43-3.68 3.98-3.05 4.4-2.33 4.72-1.57 4.93-.76 2.15-.07h22.35m22.36 0h4.48m22.35 0h44.7m22.37 0h4.47m22.35 0h44.7m22.37 0h4.46m22.35 0h22.37l5 .42 4.82 1.23 4.53 2 4.17 2.76 3.68 3.43 3.05 3.98 2.33 4.4 1.57 4.7.76 4.93.07 2.15v23.3" stroke="#f90" stroke-width="5" fill="none"/><use xlink:href="#k" transform="matrix(1,0,0,1,347.49999999999994,1104.9999999999998) translate(151.55 14.4)"/><path d="M1212.33 274.33c16.57 0 30 13.43 30 30v1000.34c0 16.57-13.43 30-30 30H321.67c-16.57 0-30-13.43-30-30V304.33c0-16.57 13.43-30 30-30z" stroke="#000" stroke-width="2" fill="none"/><path d="M330.7 265.93v-.8c0-12.8 8.33-22.8 18.57-22.8 7.36 0 13.76 5.6 16.64 13.6 1.6-1.6 3.53-2 5.45-2 5.12 0 8.96 4.8 9.28 11.2 7.36.8 12.8 9.6 12.8 16.4v1.6c0 7.6-6.4 15.2-14.4 15.2h-43.2c-8 0-14.4-7.6-14.4-15.2v-1.6c0-5.6 3.84-13.6 9.28-15.6z" fill="#146eb4"/><path d="M340.3 268.73h2.9l2.87 16.8 2.88-16.8h2.88l-4.16 21.2h-3.52l-3.84-21.2zM353.75 268.73h5.12c3.52 0 4.8 2.4 4.8 6.4 0 3.6-1.92 6-5.12 6h-2.24v8.8h-2.55v-21.2zm2.56 10h1.93c1.6 0 2.88-1.2 2.88-3.6 0-2.4-.95-4-3.2-4h-1.6v7.6zM376.47 282.33v.4c0 4-1.28 7.6-5.44 7.6s-5.44-3.2-5.44-10.8c0-7.6 1.27-11.2 5.75-11.2 4.8 0 5.12 4.4 5.12 6.8v.4h-2.88v-.4c0-2-.33-4.4-2.57-4.4-1.92 0-2.88 1.6-2.88 8.4 0 6.8.96 8.8 2.88 8.8 2.56 0 2.56-3.2 2.56-5.2v-.4h2.87z" fill="#fff"/><use xlink:href="#l" transform="matrix(1,0,0,1,291.66666666666686,1314.6666666666276) translate(475.5 15.4)"/><path d="M633.67 751.67c16.57 0 30 13.43 30 30v286.66c0 16.57-13.43 30-30 30h-224c-16.57 0-30-13.43-30-30V781.67c0-16.57 13.43-30 30-30z" stroke="#000" stroke-width="2" fill="none"/><path d="M406.55 731.67h6.08v22h-6.08v-22z" fill="#146eb4"/><path d="M400.15 742.07h37.76v23.2h-37.75v-23.2zM406.55 731.67c.64-6.8 6.08-12 12.48-12 6.72 0 12.16 5.2 12.8 12h-6.08s-.32-6.4-6.72-6.4c-6.4 0-6.4 6.4-6.4 6.4h-6.08z" fill="#146eb4"/><path d="M425.75 731.67h6.08v22h-6.08v-22z" fill="#146eb4"/><use xlink:href="#m" transform="matrix(1,0,0,1,379.66666666666663,1078.333333333333) translate(86.05 14.4)"/><use xlink:href="#e" transform="matrix(1,0,0,1,379.66666666666663,1078.333333333333) translate(144.95 14.4)"/><path d="M989.16 459.33h33.64v42.04h-33.64v-42.04z" fill="#29aae1"/><path d="M1002 488.52h17.1c.54 0 .54 0 .54.42 0 .38 0 .38-.54.38H1002c-.57 0-.57 0-.57-.38 0-.42 0-.42.57-.42zM1002.03 490.66h17.04c.74 0 .74 0 .74.55v.13c0 .55 0 .55-.73.55h-17.04c-.77 0-.77 0-.77-.55v-.12c0-.54 0-.54.77-.54zM1002.1 493.3h17.07c.74 0 .74 0 .74.55v.13c0 .55 0 .55-.73.55h-17.07c-.74 0-.74 0-.74-.55v-.13c0-.54 0-.54.74-.54zM1017.66 479.74c0 1.1-1.2 1.98-2.76 1.98-1.55 0-2.8-.88-2.8-1.98s1.25-1.97 2.8-1.97c1.55 0 2.76.88 2.76 1.97z" fill="#fff"/><path d="M1016.55 479.74c0 .68-.74 1.22-1.68 1.22s-1.72-.54-1.72-1.22c0-.67.78-1.2 1.72-1.2s1.68.53 1.68 1.2z" fill="#7fcced"/><use xlink:href="#n" transform="matrix(1,0,0,1,959.163554535487,501.3302050747328) translate(11.074999999999996 18.6)"/><path d="M1125.43 435.67c16.57 0 30 13.43 30 30V517c0 16.57-13.43 30-30 30H896.1c-16.57 0-30-13.43-30-30v-51.33c0-16.57 13.43-30 30-30z" stroke="#000" stroke-width="2" fill="none"/><path d="M892.98 415.67h6.08v22h-6.08v-22z" fill="#146eb4"/><path d="M886.58 426.07h37.76v23.2h-37.76v-23.2zM892.98 415.67c.64-6.8 6.08-12 12.48-12 6.72 0 12.16 5.2 12.8 12h-6.08s-.32-6.4-6.72-6.4c-6.4 0-6.4 6.4-6.4 6.4h-6.08z" fill="#146eb4"/><path d="M912.18 415.67h6.08v22h-6.08v-22z" fill="#146eb4"/><use xlink:href="#d" transform="matrix(1,0,0,1,866.0954280148059,526.9999999999998) translate(92.05 14.4)"/><use xlink:href="#e" transform="matrix(1,0,0,1,866.0954280148059,526.9999999999998) translate(143.95 14.4)"/><path d="M1005.96 501.37v48.98c0 2.76-2.24 5-5 5H780c-2.76 0-5 2.24-5 5v48.98" stroke="#000" stroke-width="2" fill="none"/><path d="M775 609.33l-4.64-14.26h9.28z"/><path d="M769 594.07h12l-5.1 15.7-1.3-.44-.6.2zm2.74 2L775 606.1l3.26-10.03z"/><path d="M1011.02 779.67c23.64 0 42.92 18.63 42.92 41.68 0 23.06-19.28 41.78-42.92 41.78-23.72 0-42.92-18.72-42.92-41.78 0-23.05 19.2-41.68 42.92-41.68z" fill="#f58535"/><path d="M1053.94 821.44V825c0 23.05-19.28 41.77-42.92 41.77-23.72 0-42.92-18.72-42.92-41.78v-3.56c0 22.97 19.2 41.7 42.92 41.7 23.64 0 42.92-18.73 42.92-41.7z" fill="#9e5622"/><path d="M1051.9 834.1v3.63c-.86 2.52-1.97 4.94-3.25 7.28v-3.63c1.28-2.25 2.4-4.76 3.24-7.28M1048.65 841.37V845c-7.25 12.93-21.42 21.77-37.63 21.77-23.72 0-42.92-18.72-42.92-41.78v-3.56c0 22.97 19.2 41.7 42.92 41.7 16.2 0 30.38-8.77 37.63-21.77M1053.94 821.44V825c0 2.07-.17 4.07-.43 5.97v-3.64c.27-1.9.44-3.9.44-5.9M1053.5 827.33v3.64c-.4 2.34-.92 4.6-1.6 6.76v-3.64c.68-2.17 1.2-4.43 1.6-6.77" fill="#9e5622"/><path d="M1038.15 806.8h-14V804l-4.26 5.37-2.06-2.78-19.62 12.3h16.64V816l9.3 3.47v-5.03h14v13.6h-14V823l-9.3 3.38v-2.86h-16.64l19.8 12.3 1.87-2.85 4.26 5.46v-2.78h14v13.7h-14v-5.46l-9.64-2.27 1.36-2.77-24.23-15.34v9.1h-15.53v-22.8h15.53v9.1l24.4-15.33-1.53-2.8 9.64-2.24v-5.46h14v13.7z" fill="#fff"/><use xlink:href="#b" transform="matrix(1,0,0,1,968.0954280148057,866.3333333333331) translate(26 14.4)"/><path d="M986.72 910.33c9.12 0 16.42 5.2 16.42 11.6v45.68c0 6.4-7.3 11.6-16.42 11.6h-62.88c-9.02 0-16.4-5.2-16.4-11.6v-45.68c0-6.38 7.38-11.6 16.4-11.6h62.88z" fill="#f58535"/><path d="M1003.14 967.6v4.04c0 6.38-7.3 11.6-16.42 11.6v-4.05c9.12 0 16.42-5.2 16.42-11.6z" fill="#9e5622"/><path d="M1003.14 967.6v4.04c0 6.38-7.3 11.6-16.42 11.6v-4.05c9.12 0 16.42-5.2 16.42-11.6z" fill="#9e5622"/><path d="M1003.14 967.6v4.04c0 .6-.1 1.1-.2 1.6v-4.02c.1-.5.2-1.1.2-1.6" fill="#9e5622"/><path d="M1002.95 969.22v4.03c-.1.66-.3 1.32-.58 1.9v-4.02c.3-.6.48-1.25.58-1.9M1002.37 971.13v4.03c-.3.73-.77 1.4-1.25 2.05v-4.02c.48-.66.96-1.32 1.25-2.05M1001.12 973.18v4.03c-2.78 3.6-8.16 6.03-14.4 6.03v-4.04c6.24 0 11.62-2.43 14.4-6.02" fill="#9e5622"/><path d="M923.17 979.2h63.65v4.03h-63.65v-4.04z" fill="#9e5622"/><path d="M923.84 979.2v4.03c-9.02 0-16.4-5.2-16.4-11.6v-4.02c0 6.4 7.38 11.6 16.4 11.6z" fill="#9e5622"/><path d="M923.84 979.2v4.03c-9.02 0-16.4-5.2-16.4-11.6v-4.02c0 6.4 7.38 11.6 16.4 11.6z" fill="#9e5622"/><path d="M924.52 979.2v4.03c-9.03 0-17.1-5.2-17.1-11.6v-4.02c0 6.4 7.4 11.6 16.42 11.6" fill="#9e5622"/><use xlink:href="#h" transform="matrix(1,0,0,1,907.428761348178,983.6666666666279) translate(30.525 14.4)"/><use xlink:href="#o" transform="matrix(1,0,0,1,917.428761348178,920.3333333332944) translate(-7.472222222222221 26)"/><path d="M1102.4 910.67c9.1 0 16.4 5.2 16.4 11.58v45.7c0 6.37-7.3 11.58-16.4 11.58h-62.9c-9 0-16.4-5.2-16.4-11.6v-45.68c0-6.38 7.4-11.58 16.4-11.58h62.9z" fill="#f58535"/><path d="M1118.8 967.94v4.03c0 6.38-7.3 11.6-16.4 11.6v-4.04c9.1 0 16.4-5.2 16.4-11.6z" fill="#9e5622"/><path d="M1118.8 967.94v4.03c0 6.38-7.3 11.6-16.4 11.6v-4.04c9.1 0 16.4-5.2 16.4-11.6z" fill="#9e5622"/><path d="M1118.8 967.94v4.03c0 .6-.1 1.1-.18 1.62v-4.05c.1-.5.2-1.1.2-1.6M1118.62 969.55v4.04c-.1.65-.3 1.3-.58 1.9v-4.04c.3-.6.48-1.25.58-1.9M1118.04 971.46v4.03c-.3.73-.77 1.4-1.25 2.05v-4.04c.47-.65.95-1.3 1.24-2.04" fill="#9e5622"/><path d="M1116.8 973.5v4.05c-2.8 3.6-8.17 6-14.4 6v-4.02c6.23 0 11.6-2.42 14.4-6.02" fill="#9e5622"/><path d="M1038.84 979.53h63.65v4.03h-63.66v-4.03z" fill="#9e5622"/><path d="M1039.5 979.53v4.03c-9 0-16.4-5.2-16.4-11.6v-4.02c0 6.38 7.4 11.6 16.4 11.6z" fill="#9e5622"/><path d="M1039.5 979.53v4.03c-9 0-16.4-5.2-16.4-11.6v-4.02c0 6.38 7.4 11.6 16.4 11.6z" fill="#9e5622"/><path d="M1040.18 979.53v4.03c-9.02 0-17.08-5.2-17.08-11.6v-4.02c0 6.38 7.4 11.6 16.4 11.6" fill="#9e5622"/><use xlink:href="#h" transform="matrix(1,0,0,1,1023.0954280148057,984) translate(30.525 14.4)"/><use xlink:href="#p" transform="matrix(1,0,0,1,1033.0954280148057,920.6666666666665) translate(-7.472222222222221 26)"/><path d="M1010.76 866.75v16.8c0 2.75-2.24 5-5 5H952.9c-2.77 0-5 2.23-5 5v16.78" stroke="#000" stroke-width="2" fill="none"/><path d="M1010.76 866.75h-1v-.06zm1 0h-.2.2zM947.9 910.33l-4.64-14.26h9.27z"/><path d="M948.94 910.33h-2.1l-4.96-15.26h12.02zm-4.3-13.26l3.25 10.03 3.25-10.03z"/><path d="M1010.76 866.75v16.96c0 2.77 2.24 5 5 5h50.34c2.76 0 5 2.25 5 5v16.97" stroke="#000" stroke-width="2" fill="none"/><path d="M1010.76 866.75h-1v-.06zm1 0h-.2.2zM1071.1 910.67l-4.64-14.27h9.27z"/><path d="M1072.15 910.67h-2.1l-4.97-15.27h12.03zm-4.3-13.27l3.25 10.03 3.25-10.03z"/><path d="M1132.93 388.67c16.57 0 30 13.43 30 30V1095c0 16.57-13.43 30-30 30h-271c-16.57 0-30-13.43-30-30V418.67c0-16.57 13.43-30 30-30z" fill="none"/><path d="M1162.93 472.34v5.37m0 26.85v53.68m0 26.84v5.36m0 26.84v53.68m0 26.84v5.36m0 26.83v53.67m0 26.84v5.38m0 26.84v53.67m0 26.83v5.37m0 26.84v53.68m0 26.84v5.36m0 26.84V1095l-.42 5-1.22 4.82-2 4.54-2.76 4.18-3.43 3.67-3.98 3.06-4.4 2.34-4.7 1.56-4.94.76-2.15.08h-21.5m-21.52 0h-4.3m-21.5 0h-43m-21.52 0h-4.3m-21.5 0h-43.03m-21.5 0h-4.3m-21.5 0h-21.52l-5-.42-4.82-1.22-4.53-2-4.18-2.77-3.68-3.43-3.05-3.98-2.34-4.4-1.56-4.72-.77-4.93-.07-2.15v-26.84m0-26.84v-5.36m0-26.84v-53.68m0-26.84v-5.37m0-26.84V842.7m0-26.84v-5.37m0-26.83V730m0-26.84v-5.37m0-26.85v-53.68m0-26.84v-5.36m0-26.84v-53.68m0-26.84v-5.36m0-26.83v-26.83l.42-5.02 1.22-4.8 2-4.55 2.77-4.17 3.42-3.68 3.98-3.05 4.4-2.33 4.7-1.56 4.94-.76 2.15-.07h21.5m21.5 0h4.32m21.5 0h43.02m21.5 0h4.3m21.52 0h43m21.5 0h4.3m21.52 0h21.5l5.02.4 4.8 1.24 4.55 2.02 4.17 2.76 3.67 3.42 3.05 3.98 2.32 4.4 1.57 4.7.75 4.93.08 2.17v26.84" stroke="#f90" stroke-width="5" fill="none"/><use xlink:href="#q" transform="matrix(1,0,0,1,831.9287613481392,1105.0000000000002) translate(146.55 14.4)"/><path d="M1118.1 760c16.56 0 30 13.43 30 30v278c0 16.57-13.44 30-30 30h-224c-16.57 0-30-13.43-30-30V790c0-16.57 13.43-30 30-30z" stroke="#000" stroke-width="2" fill="none"/><path d="M890.98 740h6.08v22h-6.08v-22z" fill="#146eb4"/><path d="M884.58 750.4h37.76v23.2h-37.76v-23.2zM890.98 740c.64-6.8 6.08-12 12.48-12 6.72 0 12.16 5.2 12.8 12h-6.08s-.32-6.4-6.72-6.4c-6.4 0-6.4 6.4-6.4 6.4h-6.08z" fill="#146eb4"/><path d="M910.18 740h6.08v22h-6.08v-22z" fill="#146eb4"/><use xlink:href="#m" transform="matrix(1,0,0,1,864.0954280148059,1078) translate(86.05 14.4)"/><use xlink:href="#e" transform="matrix(1,0,0,1,864.0954280148059,1078) translate(144.95 14.4)"/><path d="M796.13 342h204.83c2.76 0 5 2.24 5 5v112.33" stroke="#000" stroke-width="2" fill="none"/><path d="M796.13 343h-.5l.24-.5.26-.5zm-1.46-.78l-.38.54.64-1zM1005.96 459.33l-4.63-14.26h9.27z"/><path d="M1007 459.33h-2.1l-4.95-15.26h12.02zm-4.3-13.26l3.26 10.03 3.26-10.03z"/><path d="M790.9 650.67h214.86c2.76 0 5 2.24 5 5v124" stroke="#000" stroke-width="2" fill="none"/><path d="M1010.76 779.67l-4.63-14.27h9.27z"/><path d="M1011.8 779.7l-.78-.03-1.3.03-4.97-15.3h12.02zm-4.3-13.3l3.26 10.03 3.26-10.03z"/><path d="M1241.67 156.33c16.57 0 30 13.43 30 30v1149.34c0 16.57-13.43 30-30 30h-948c-16.57 0-30-13.43-30-30V186.33c0-16.57 13.43-30 30-30z" stroke="#000" stroke-width="2" fill="none"/><path d="M312.95 152.33l-1.92 10.4h4.16l-2.25-10.4z" fill="#f90"/><path d="M293.43 163.53v1.6c0 7.6 6.4 15.2 14.4 15.2h43.2c8 0 14.4-7.6 14.4-15.2v-1.6c0-6.8-5.44-15.6-12.8-16.4-.32-6.4-4.16-11.2-9.28-11.2-1.92 0-3.84.4-5.44 2-2.87-8-9.27-13.6-16.63-13.6-10.24 0-18.56 10-18.56 22.8v.8c-5.43 2-9.27 10-9.27 15.6zm23.04 7.2l-.96-5.2h-5.1l-.97 5.2h-2.88l4.8-21.2h3.52l4.48 21.2h-2.88zm16.64 0h-3.2l-2.23-16-2.24 16h-3.2l-3.2-21.2h2.88l2.25 16.4 2.24-16.4h2.87l2.24 16.4 2.25-16.4h2.56l-3.2 21.2zm9.93.4c-4.16 0-5.12-3.6-5.12-6.4v-.8h2.57v.8c0 2.4.96 4 2.88 4 1.6 0 2.56-1.6 2.56-3.2 0-2.4-.95-3.2-2.55-4l-1.92-.8c-2.24-1.2-3.52-2.8-3.52-5.6 0-4 2.25-6 5.45-6 4.16 0 4.8 3.2 4.8 5.6v.4h-2.88v-.4c0-2-.64-3.2-2.24-3.2-1.28 0-2.24.8-2.24 3.2 0 1.6.63 2.8 2.55 3.6l1.92.8c2.24 1.2 3.2 2.8 3.2 5.6 0 4.4-2.24 6.4-5.44 6.4z" fill="#f90"/><path d="M311.35 149.53l-4.8 21.2h2.88l.96-5.2h5.1l.97 5.2h2.88l-4.48-21.2h-3.52zm-.32 13.2l1.92-10.4 2.24 10.4h-4.17zM331.5 165.93l-2.23-16.4h-2.88l-2.25 16.4-2.24-16.4h-2.87l3.2 21.2h3.2l2.24-16 2.24 16h3.2l3.2-21.2h-2.55l-2.24 16.4zM345.27 159.13l-1.92-.8c-1.92-.8-2.56-2-2.56-3.6 0-2.4.95-3.2 2.23-3.2 1.6 0 2.24 1.2 2.24 3.2v.4h2.88v-.4c0-2.4-.64-5.6-4.8-5.6-3.2 0-5.44 2-5.44 6 0 2.8 1.3 4.4 3.53 5.6l1.92.8c1.6.8 2.56 1.6 2.56 4 0 1.6-.95 3.2-2.55 3.2-1.92 0-2.88-1.6-2.88-4v-.8h-2.56v.8c0 2.8.97 6.4 5.13 6.4 3.2 0 5.44-2 5.44-6.4 0-2.8-.96-4.4-3.2-5.6z" fill="#fff"/><use xlink:href="#r" transform="matrix(1,0,0,1,263.66666666662786,1345.666666666628) translate(475.55 14.4)"/><path d="M808.4 1179.9v4.7c0 7.4-6.3 13.4-14.2 13.4v-4.7c7.9 0 14.2-6 14.2-13.4z" fill="#1e4a76"/><path d="M808.4 1179.9v4.7c0 .6 0 1.3-.1 1.9v-4.7c.1-.6.1-1.2.1-1.9M808.3 1181.8v4.7c-.1.7-.3 1.5-.5 2.2v-4.7c.2-.7.4-1.4.5-2.2M807.8 1184v4.7c-.3.8-.7 1.6-1.1 2.3v-4.7c.4-.7.8-1.5 1.1-2.3M796.4 1191.9l-2.2 6.1h-71v-4.7l73.2-1.4z" fill="#1e4a76"/><path d="M723.2 1193.3v4.7c-7.8 0-14.2-6-14.2-13.4v-4.7c0 7.4 6.4 13.4 14.2 13.4z" fill="#1e4a76"/><path d="M794.2 1098c7.9 0 14.2 6 14.2 13.4v68.5c0 7.4-6.3 13.4-14.2 13.4h-71c-7.8 0-14.2-6-14.2-13.4v-68.5c0-7.4 6.4-13.4 14.2-13.4h71z" fill="#2e73b7"/><path d="M735.7 1122.5v.4c0 3.6-1.6 7.1-6.5 7.1-5.3 0-7-3.2-7-10.3 0-7 1.7-10.3 7-10.3 6 0 6.4 4.2 6.4 6.3v.3h-3.4v-.3c0-1.8-.6-4-3-3.9-2.5 0-3.6 1.5-3.6 7.8 0 6.4 1.1 8 3.6 8 2.8 0 3.1-2.9 3.1-4.7v-.4h3.4zM742 1109.8h4.3l5.6 19.8h-3.6l-1.3-4.8h-6.1l-1.4 4.8H736l6-19.8zm4.5 12.4l-2.4-9.7h-.1l-2.5 9.7h5zM766.3 1122.5v.4c0 3.6-1.6 7.1-6.5 7.1-5.3 0-7-3.2-7-10.3 0-7 1.7-10.3 7-10.3 6 0 6.3 4.2 6.3 6.3v.3h-3.3v-.3c0-1.8-.6-4-3-3.9-2.5 0-3.6 1.5-3.6 7.8 0 6.4 1.1 8 3.6 8 2.8 0 3.1-2.9 3.1-4.7v-.4h3.4zM768.6 1109.8h3.4v8h6.2v-8h3.3v19.8h-3.3v-9.2H772v9.2h-3.4v-19.8zM785 1109.8h11.4v2.7h-8v5.5h7.5v2.6h-7.5v6.4h8.2v2.6H785v-19.8z" fill="#fff"/><use xlink:href="#s" transform="matrix(1,0,0,1,709,1198) translate(23.549999999999997 14.4)"/><use xlink:href="#t" transform="matrix(1,0,0,1,709,1198) translate(24.025 36)"/><path d="M554.16 1033.47v1.84M553.8 1049.1c-4.2-.87-8.78-1-12.64-1-5.7 0-12.87.85-14.3 2.05l-.06-1.68c.54-1.48 7.24-2.72 13.17-2.72 1.96 0 10.98.56 13.83 1.52" fill="#1e4a76"/><path d="M527.1 1048.2v1.83c-.06.04-.12.12-.12.16v-1.8c0-.1.06-.17.12-.2M526.98 1048.4v1.8c-.06.03-.06.07-.06.1v-1.83c0-.04 0-.04.06-.08" fill="#1e4a76"/><path d="M542.05 1049.8c2.43 0 4.5.1 6.23.27 3.74.4 5.64 1.04 5.64 1.44 0 .4-1.9 1.1-5.64 1.45-1.72.2-3.8.32-6.23.32-7.77 0-11.92-1.16-11.92-1.76 0-.55 4.15-1.7 11.92-1.7z" fill="#2e73b7"/><path d="M553.92 1051.5v1.97c0 .44-1.96 1.08-5.64 1.44-1.72.2-3.8.33-6.23.33-7.77 0-11.92-1.16-11.92-1.76v-1.96c0 .6 4.15 1.77 11.92 1.77 2.43 0 4.5-.12 6.23-.32 3.68-.36 5.64-1.04 5.64-1.44zM553.92 1051.5v2.01-1.95-.04M553.92 1051.55v2.01-1.96-.05" fill="#1e4a76"/><path d="M553.92 1051.6v1.95c0 .04 0 .04-.06.08v-2c.06 0 .06 0 .06-.04M553.86 1051.63v2c-.36.4-2.26.96-5.58 1.28-1.72.2-3.8.33-6.23.33-7.77 0-11.92-1.16-11.92-1.76v-1.96c0 .6 4.2 1.77 11.92 1.77 2.43 0 4.5-.12 6.23-.32 3.32-.32 5.22-.88 5.58-1.32M554.16 1066.9v2.01-1.95-.04M554.16 1066.95v1.96c0 .05-.06.05-.06.1v-1.97c0-.04.06-.04.06-.08M554.1 1067.03v1.96s0 .03-.06.07v-1.96c.06-.03.06-.07.06-.07" fill="#1e4a76"/><path d="M542.88 1068.6c-4.4 0-7.7-.3-10.08-.73v-.76c-1.5-.43-2.56-.95-2.67-1.35v3.24c.23.2.77.43 2.6.83 2.44.48 5.7.8 10.1.8 8 0 11.33-1.16 11.33-1.76v-1.96c0 .6-3.27 1.7-11.28 1.7zM499.7 1067.83v1.8c-2.5 0-4.52-1.24-4.52-2.8l-.12-1.76c0 1.52 2.14 2.76 4.63 2.76z" fill="#1e4a76"/><path d="M528.58 1067.8v1.83h-28.9l-.65-2.4 29.55.56z" fill="#1e4a76"/><path d="M553.86 1047.5c-4.27-.95-11.27-1-13.3-.95-5.8.04-12.45.92-13.58 2l-.06.2v18.08c0 .32 1.07.76 1.66.96l-29.07.03c-2.48 0-4.5-1.28-4.5-2.8v-31.56c0-1.56 2.02-2.8 4.5-2.8h50.03c2.5 0 4.5 1.24 4.5 2.8" fill="#2e73b7"/><path d="M554.16 1054.9v12c0 .6-3.33 1.73-11.34 1.73-4.4 0-7.7-.32-9.85-.72-1.6-.3-2.73-.67-2.84-.95v-11.92c2.3.92 7.12 1.36 11.92 1.36H544c.42 0 .84-.05 1.2-.05.23 0 .4-.04.6-.04.35 0 .64-.03.94-.03.18-.04.35-.04.53-.08.36 0 .66-.05 1-.05 2.62-.28 4.64-.72 5.9-1.24z" fill="#2e73b7"/><path d="M508.88 1039.7l-1.95-5h-2.67v6.77h1.6v-5.64h.06l2.2 5.64h1.48l2.2-5.64v5.64h1.65v-6.76h-2.67l-1.9 5zM518.08 1040.2h-.06l-1.42-3.8h-1.78l2.37 5.2-.25.4c-.17.35-.53.4-1.12.4-.18 0-.36 0-.54-.05v.84c.23 0 .47.03.64.03 1.73 0 2.26-.16 2.9-1.56l2.27-5.28h-1.7l-1.32 3.8zM526.8 1037.8l-1.18-.3c-1.2-.27-1.67-.55-1.67-1.15 0-.72.78-.96 1.5-.96 1.06 0 1.53.35 1.53.95v.16h1.72v-.15c0-.68-.3-1.76-3.08-1.76-2.02 0-3.4.67-3.4 1.87 0 1 .73 1.48 2.27 1.88l1.18.24c1 .2 1.6.5 1.6 1.2 0 .5-.6 1-1.66 1-1.2 0-1.78-.4-1.78-1.25v-.16h-1.72v.15c0 .96.6 2.04 3.26 2.04 2.2 0 3.62-.6 3.62-2.05 0-.92-.65-1.44-2.2-1.76zM535.82 1041.4l1.13.67 1-.56-1.12-.7c.53-.53.9-1.45.9-2.73 0-2.4-1.14-3.48-3.63-3.48-2.5 0-3.56 1.07-3.56 3.47 0 2.44 1.07 3.52 3.56 3.52.7 0 1.25-.05 1.72-.2zm-3.56-3.33c0-2.28.83-2.68 1.84-2.68 1.07 0 1.84.4 1.84 2.67 0 .96-.06 1.56-.36 2l-.7-.48-.96.63.83.48c-.23.1-.4.1-.65.1-1 0-1.84-.4-1.84-2.73zM545.37 1040.55h-4.2v-5.84h-1.73v6.77h5.93v-.92zM542.17 1064.55h-.06l-2.48-6.68H536v9h2.2v-7.48l2.9 7.47h1.96l2.9-7.48h.07v7.47h2.2v-9h-3.57l-2.5 6.68z" fill="#fff"/><use xlink:href="#l" transform="matrix(1,0,0,1,495,1050.6666666666667) translate(30 15.4)"/><path d="M1043.48 1026.56v1.9M1043.12 1042.72c-4.3-.9-8.98-1.03-12.92-1.03-5.83 0-13.17.86-14.62 2.1l-.06-1.74c.54-1.53 7.4-2.8 13.47-2.8 2 0 11.2.57 14.12 1.56" fill="#1e4a76"/><path d="M1015.82 1041.77v1.9c-.06.04-.12.13-.12.17v-1.86c0-.1.06-.17.12-.2M1015.7 1041.98v1.86c-.06.04-.06.08-.06.12v-1.9c0-.04 0-.04.06-.08" fill="#1e4a76"/><path d="M1031.1 1043.42c2.5 0 4.62.13 6.38.3 3.82.4 5.76 1.07 5.76 1.48 0 .4-1.94 1.12-5.76 1.5-1.76.2-3.88.32-6.37.32-7.94 0-12.2-1.2-12.2-1.82 0-.58 4.26-1.78 12.2-1.78z" fill="#2e73b7"/><path d="M1043.24 1045.2v2.03c0 .45-2 1.1-5.76 1.48-1.76.22-3.88.35-6.37.35-7.94 0-12.2-1.2-12.2-1.82v-2.03c0 .62 4.26 1.82 12.2 1.82 2.5 0 4.62-.12 6.38-.33 3.76-.38 5.76-1.1 5.76-1.5zM1043.24 1045.2v2.07-2.03-.04M1043.24 1045.24v2.07-2.02-.04" fill="#1e4a76"/><path d="M1043.24 1045.28v2.03c0 .05 0 .05-.06.1v-2.07c.06 0 .06 0 .06-.05" fill="#1e4a76"/><path d="M1043.18 1045.33v2.06c-.36.4-2.3.98-5.7 1.3-1.76.22-3.88.35-6.37.35-7.94 0-12.2-1.2-12.2-1.82v-2.03c0 .62 4.32 1.82 12.2 1.82 2.5 0 4.62-.12 6.38-.33 3.4-.34 5.34-.92 5.7-1.37M1043.48 1061.1v2.08-2.02-.05M1043.48 1061.16v2.02c0 .04-.06.04-.06.08v-2.02c0-.04.06-.04.06-.08M1043.42 1061.24v2.02s0 .05-.06.1v-2.04c.06-.04.06-.08.06-.08" fill="#1e4a76"/><path d="M1031.96 1062.85c-4.5 0-7.9-.3-10.32-.74v-.78c-1.5-.45-2.6-1-2.73-1.4v3.34c.26.2.8.46 2.68.87 2.5.5 5.83.83 10.32.83 8.2 0 11.58-1.2 11.58-1.82v-2.03c0 .63-3.33 1.75-11.52 1.75zM987.8 1062.07v1.86c-2.56 0-4.62-1.3-4.62-2.9l-.12-1.82c0 1.58 2.18 2.87 4.73 2.87z" fill="#1e4a76"/><path d="M1017.34 1062.02v1.9H987.8l-.67-2.47 30.2.57z" fill="#1e4a76"/><path d="M1043.18 1041.07c-4.37-1-11.53-1.04-13.6-1-5.93.05-12.73.96-13.88 2.07l-.06.2v18.7c0 .32 1.1.78 1.7.98l-29.73.05c-2.54 0-4.6-1.33-4.6-2.9v-32.6c0-1.62 2.06-2.9 4.6-2.9h51.15c2.55 0 4.6 1.28 4.6 2.9" fill="#2e73b7"/><path d="M1043.48 1048.7v12.4c0 .63-3.4 1.8-11.58 1.8-4.5 0-7.9-.34-10.07-.75-1.64-.33-2.8-.7-2.92-1v-12.3c2.38.94 7.3 1.4 12.2 1.4h2.01c.44 0 .86-.05 1.22-.05.25 0 .43-.04.6-.04.37 0 .68-.04.98-.04.18-.04.37-.04.55-.08.36 0 .66-.04 1.03-.04 2.67-.3 4.73-.75 6-1.3z" fill="#2e73b7"/><path d="M997.2 1033l-2-5.16h-2.74v7h1.64V1029h.06l2.25 5.83h1.52l2.25-5.83v5.83h1.7v-7h-2.73l-1.94 5.18zM1006.6 1033.5h-.06l-1.46-3.92h-1.82l2.43 5.37-.25.4c-.2.4-.55.43-1.16.43-.2 0-.37 0-.55-.04v.86c.24 0 .48.05.67.05 1.75 0 2.3-.17 2.97-1.62l2.3-5.45h-1.77l-1.33 3.92zM1015.52 1031.02l-1.22-.3c-1.2-.27-1.7-.56-1.7-1.18 0-.75.8-1 1.52-1 1.1 0 1.58.38 1.58 1v.16h1.76v-.16c0-.7-.3-1.82-3.16-1.82-2.06 0-3.45.7-3.45 1.94 0 1.03.72 1.53 2.3 1.94l1.2.25c1.05.2 1.65.54 1.65 1.24 0 .53-.6 1.02-1.7 1.02-1.2 0-1.82-.4-1.82-1.28v-.16h-1.76v.16c0 1 .6 2.1 3.34 2.1 2.25 0 3.7-.6 3.7-2.1 0-.95-.67-1.5-2.24-1.82zM1024.74 1034.74l1.15.7 1.02-.57-1.15-.75c.55-.53.9-1.48.9-2.8 0-2.5-1.14-3.6-3.7-3.6-2.54 0-3.63 1.1-3.63 3.6s1.1 3.63 3.64 3.63c.73 0 1.27-.04 1.76-.2zm-3.64-3.43c0-2.34.85-2.76 1.88-2.76 1.1 0 1.88.42 1.88 2.77 0 1-.06 1.63-.36 2.08l-.73-.5-.97.67.85.5c-.25.07-.43.07-.67.07-1.03 0-1.88-.4-1.88-2.8zM1034.5 1033.88h-4.3v-6.04h-1.76v7h6.07v-.96zM1031.23 1058.68h-.06l-2.55-6.9h-3.7v9.3h2.25v-7.74l2.97 7.73h2l2.97-7.73h.07v7.73h2.25v-9.3h-3.64l-2.55 6.9z" fill="#fff"/><use xlink:href="#l" transform="matrix(1,0,0,1,983,1045) translate(30.5 15.4)"/><path d="M471 974.9v70.77c0 2.76 2.24 5 5 5h19" stroke="#000" stroke-width="2" fill="none"/><path d="M495 1050.67l-14.27 4.63v-9.27z"/><path d="M495 1049.62v2.1l-15.27 4.96v-12.03zm-13.27 4.3l10.03-3.25-10.03-3.26z"/><path d="M586.67 975.23v70.44c0 2.76-2.24 5-5 5h-27.34" stroke="#000" stroke-width="2" fill="none"/><path d="M568.6 1055.3l-14.27-4.63 14.27-4.64z"/><path d="M569.6 1056.68l-15.68-5.1v-.07l-.07.06.07-.05-.48-.4-1.88-.54h-.1l18.14-5.9zm-12.03-6l10.03 3.25v-6.52z"/><path d="M955.43 983.23v56.1c0 2.76 2.24 5 5 5H983" stroke="#000" stroke-width="2" fill="none"/><path d="M983 1044.33l-14.27 4.64v-9.27z"/><path d="M983 1043.28v2.1l-15.27 4.97v-12.03zm-13.27 4.3l10.03-3.25-10.03-3.26z"/><path d="M1074.33 983.56v55.77c0 2.76-2.24 5-5 5h-25.66" stroke="#000" stroke-width="2" fill="none"/><path d="M1057.93 1048.97l-14.26-4.64 14.26-4.63z"/><path d="M1058.93 1050.35l-15.7-5.1v-.05l-.03.03.04-.03-.54-.43-1.9-.55 18.13-5.9zm-12.03-6.02l10.03 3.26v-6.53z"/><path d="M423 935h-95.5c-2.76 0-5 2.24-5 5v213c0 2.76 2.24 5 5 5H709" stroke="#000" stroke-width="2" fill="none"/><path d="M709 1158l-14.27 4.64v-9.28z"/><path d="M709 1156.95v2.1l-15.27 4.96v-12zm-13.27 4.3l10.03-3.25-10.03-3.26z"/><path d="M634.38 949H754c2.76 0 5 2.24 5 5v144" stroke="#000" stroke-width="2" fill="none"/><path d="M759 1098l-4.64-14.27h9.28z"/><path d="M760.05 1098h-2.1l-4.96-15.27h12zm-4.3-13.27l3.25 10.03 3.26-10.03z"/><path d="M907.43 957h-16.25c-2.07 0-3.75-1.68-3.75-3.75 0-2.07-1.68-3.75-3.75-3.75H764c-2.76 0-5 2.24-5 5V1098" stroke="#000" stroke-width="2" fill="none"/><path d="M759 1098l-4.64-14.27h9.28z"/><path d="M760.05 1098h-2.1l-4.96-15.27h12zm-4.3-13.27l3.25 10.03 3.26-10.03z"/><path d="M1118.8 957.33h99.7c2.76 0 5 2.24 5 5V1153c0 2.76-2.24 5-5 5H809" stroke="#000" stroke-width="2" fill="none"/><path d="M823.27 1162.64L809 1158l14.27-4.64z"/><path d="M824.27 1164l-15.87-5.14v-1.72l15.87-5.15zm-12.03-6l10.03 3.26v-6.52z"/><path d="M664 1291.66v2.94c0 .44 0 .82-.1 1.2v-2.9c.1-.43.1-.8.1-1.24" fill="#1e4a76"/><path d="M663.9 1292.9v2.9c-.17.5-.25.93-.52 1.37v-2.94c.27-.44.35-.88.53-1.32" fill="#1e4a76"/><path d="M663.38 1294.23v2.94c-.18.5-.53 1-.97 1.44v-2.87c.45-.5.8-1 .98-1.5" fill="#1e4a76"/><path d="M664 1291.66v2.94c0 4.64-5.67 8.4-12.67 8.4v-2.95c7 0 12.67-3.76 12.67-8.4z" fill="#1e4a76"/><path d="M653.2 1299.18l-1.87 3.82H588.1v-2.95zM588.1 1300.05v2.95c-7 0-12.67-3.76-12.67-8.4v-2.94c0 4.63 5.67 8.4 12.66 8.4z" fill="#1e4a76"/><path d="M651.33 1240.33c7 0 12.67 3.76 12.67 8.4v42.93c0 4.63-5.67 8.4-12.67 8.4H588.1c-7 0-12.67-3.77-12.67-8.4v-42.93c0-4.64 5.67-8.4 12.66-8.4h63.23z" fill="#2e73b7"/><path d="M651.6 1260.5v-4.44h-8.33v-5.64h-6.73v5.64h-3.36v-5.64h-6.73v5.64h-3.37v-5.64h-6.73v5.64h-3.37v-5.64h-6.73v5.64h-3.36v-5.64h-6.75v5.64h-8.32v4.45h8.32v2.27h-8.32v4.45h8.32v2.25h-8.32v4.52h8.32v2.18h-8.32v4.5h8.32v2.2h-8.32v4.52h8.32v5.57h6.74v-5.57h3.35v5.57h6.73v-5.57h3.37v5.57h6.73v-5.57h3.37v5.57h6.73v-5.57h3.36v5.57h6.73v-5.57h8.33v-4.52h-8.33v-2.2h8.33v-4.5h-8.33v-2.2h8.33v-4.5h-8.33v-2.26h8.33v-4.45h-8.33v-2.26z" fill="#fff"/><path d="M604.83 1262.52h8.5l6.47 12.6h.1l6.2-12.6h8.5v18.3h-5.67v-12.98h-.1l-6.8 12.98h-4.7l-6.74-12.85h-.1v12.85h-5.67v-18.3z" fill="#2e73b7"/><use xlink:href="#u" transform="matrix(1,0,0,1,575.4285714285716,1302.9999999999611) translate(-4.450000000000003 14.4)"/><path d="M920.57 1291.32v2.95c0 .44 0 .8-.1 1.2v-2.9c.1-.43.1-.8.1-1.25" fill="#1e4a76"/><path d="M920.48 1292.58v2.88c-.17.5-.26.94-.53 1.38v-2.95c.27-.45.36-.88.53-1.32M919.95 1293.9v2.94c-.18.5-.53 1-.97 1.44v-2.88c.44-.5.8-1 .97-1.5" fill="#1e4a76"/><path d="M920.57 1291.32v2.95c0 4.64-5.67 8.4-12.66 8.4v-2.95c7 0 12.67-3.76 12.67-8.4z" fill="#1e4a76"/><path d="M909.77 1298.84l-1.86 3.83h-63.23v-2.95zM844.67 1299.72v2.95c-7 0-12.67-3.76-12.67-8.4v-2.95c0 4.64 5.67 8.4 12.67 8.4z" fill="#1e4a76"/><path d="M907.9 1240c7 0 12.67 3.76 12.67 8.4v42.92c0 4.64-5.67 8.4-12.66 8.4h-63.23c-7 0-12.67-3.76-12.67-8.4v-42.92c0-4.64 5.67-8.4 12.67-8.4h63.24z" fill="#2e73b7"/><path d="M908.17 1260.18v-4.45h-8.32v-5.64h-6.74v5.63h-3.35v-5.64h-6.73v5.63h-3.37v-5.64h-6.73v5.63h-3.37v-5.64h-6.73v5.63h-3.36v-5.64h-6.73v5.63h-8.33v4.45h8.33v2.25h-8.33v4.45h8.33v2.26h-8.33v4.5h8.33v2.2h-8.33v4.52h8.33v2.2h-8.33v4.5h8.33v5.58h6.73v-5.58h3.36v5.58h6.73v-5.58h3.37v5.58h6.73v-5.58h3.37v5.58h6.73v-5.58h3.36v5.58h6.75v-5.58h8.32v-4.5h-8.32v-2.2h8.32v-4.5h-8.32v-2.2h8.32v-4.52h-8.32v-2.26h8.32v-4.45h-8.32v-2.25z" fill="#fff"/><path d="M861.4 1262.18h8.5l6.47 12.6h.1l6.2-12.6h8.5v18.3h-5.67v-12.97h-.1l-6.8 12.98h-4.7l-6.74-12.84h-.1v12.84h-5.65v-18.3z" fill="#2e73b7"/><use xlink:href="#u" transform="matrix(1,0,0,1,832,1302.6666666666667) translate(-4.450000000000003 14.4)"/><path d="M759 1198v16.17c0 2.76-2.24 5-5 5H624.7c-2.75 0-5 2.24-5 5v16.16" stroke="#000" stroke-width="2" fill="none"/><path d="M619.7 1240.33l-4.62-14.26h9.27z"/><path d="M620.77 1240.33h-2.1l-4.97-15.26h12.03zm-4.3-13.26l3.24 10.03 3.27-10.03z"/><path d="M759 1198v16c0 2.76 2.24 5 5 5h107.3c2.75 0 5 2.24 5 5v16" stroke="#000" stroke-width="2" fill="none"/><path d="M876.3 1240l-4.65-14.27h9.27z"/><path d="M877.34 1240h-2.1l-4.97-15.27h12.03zm-4.3-13.27l3.25 10.03 3.24-10.03z"/><path d="M753.77 164c24.65 0 44.76 13.76 44.76 30.78 0 17.03-20.1 30.85-44.76 30.85-24.75 0-44.77-13.82-44.77-30.85 0-17.02 20.02-30.78 44.77-30.78z" fill="#f58535"/><path d="M798.53 194.85v2.62c0 17.03-20.1 30.85-44.76 30.85-24.75 0-44.77-13.82-44.77-30.85v-2.62c0 16.96 20.02 30.78 44.77 30.78 24.74 0 44.76-13.82 44.76-30.78z" fill="#9e5622"/><path d="M796.4 204.2v2.68c-.9 1.86-2.05 3.65-3.38 5.38v-2.7c1.33-1.66 2.5-3.5 3.38-5.37M793.02 209.57v2.7c-7.57 9.52-22.34 16.05-39.25 16.05-24.75 0-44.77-13.82-44.77-30.85v-2.62c0 16.96 20.02 30.78 44.77 30.78 16.9 0 31.68-6.46 39.25-16.06M798.53 194.85v2.62c0 1.54-.17 3-.44 4.42v-2.7c.26-1.4.43-2.88.43-4.35" fill="#9e5622"/><path d="M798.1 199.2v2.7c-.46 1.72-1 3.38-1.7 4.98v-2.7c.7-1.6 1.24-3.25 1.7-4.98" fill="#9e5622"/><path d="M716.65 198.1v-.76c0-3.4 3.65-7.8 9.08-9.47.45-7.3 9.17-13.12 19.94-13.12 7.12 0 13.7 2.63 17.18 6.85 1.42-.38 2.84-.64 4.36-.64 5.43 0 9.97 2.7 10.86 6.27 7.48 1.03 12.82 5.95 12.82 10.1v.78c0 5.07-7.56 9.55-16.2 9.55h-41.92c-8.54 0-16.1-4.48-16.1-9.54z" fill="#fff"/><path d="M763.9 185.18l-3.2 1.54-1.5-2.43c-2.4-3.66-7.75-6.1-13.53-6.1-4 0-7.75 1.1-10.5 3.02-2.85 1.98-4.37 4.54-4.37 7.3l.1 1.9-2.32.52c-3.83.7-6.85 4.1-6.85 6.4v.77c0 2.83 4.8 6.03 11.03 6.03h41.92c6.32 0 11.13-3.2 11.13-6.02v-.76c0-2.8-4.44-6.46-9.7-6.78l-2.84-.2-.1-1.9c-.08-2.25-2.66-3.98-5.95-3.98-1.15 0-2.3.26-3.3.7z" fill="#f58535"/><use xlink:href="#v" transform="matrix(1,0,0,1,709,227.99999999999991) translate(14.024999999999999 14.4)"/><use xlink:href="#w" transform="matrix(1,0,0,1,709,227.99999999999991) translate(9.024999999999999 36)"/><path d="M751 96v33.76c0 .18-.15.33-.33.33-.2 0-.34.14-.34.33v33.76" stroke="#000" stroke-width="2" fill="none"/><path d="M750.33 164.2l-4.63-14.28h9.27z"/><path d="M751.4 164.12l-2.1.13-4.98-15.33h12.03zm-4.33-13.2l3.26 10.03 3.26-10.03z"/><path d="M753.5 228.3v75.4" stroke="#000" stroke-width="2" fill="none"/><path d="M753.5 228.3h-1v-.05zm1 0zm-2-2.72v-.02l1.27.07h-.48zM753.5 303.7l-4.64-14.26h9.28z"/><path d="M754.6 303.6l-2.12.2-5-15.36h12.03zm-4.36-13.16l3.26 10.03 3.26-10.03z"/><defs><path d="M190 0L58-211 59 0H30v-248h39L202-35l-2-213h31V0h-41" id="x"/><path d="M177-190C167-65 218 103 67 71c-23-6-38-20-44-43l32-5c15 47 100 32 89-28v-30C133-14 115 1 83 1 29 1 15-40 15-95c0-56 16-97 71-98 29-1 48 16 59 35 1-10 0-23 2-32h30zM94-22c36 0 50-32 50-73 0-42-14-75-50-75-39 0-46 34-46 75s6 73 46 73" id="y"/><path d="M24-231v-30h32v30H24zM24 0v-190h32V0H24" id="z"/><path d="M117-194c89-4 53 116 60 194h-32v-121c0-31-8-49-39-48C34-167 62-67 57 0H25l-1-190h30c1 10-1 24 2 32 11-22 29-35 61-36" id="A"/><path d="M141 0L90-78 38 0H4l68-98-65-92h35l48 74 47-74h35l-64 92 68 98h-35" id="B"/><path d="M16-82v-28h88v28H16" id="C"/><path d="M101-251c68 0 85 55 85 127S166 4 100 4C33 4 14-52 14-124c0-73 17-127 87-127zm-1 229c47 0 54-49 54-102s-4-102-53-102c-51 0-55 48-55 102 0 53 5 102 54 102" id="D"/><path d="M27 0v-27h64v-190l-56 39v-29l58-41h29v221h61V0H27" id="E"/><g id="a"><use transform="matrix(0.05,0,0,0.05,0,0)" xlink:href="#x"/><use transform="matrix(0.05,0,0,0.05,12.950000000000001,0)" xlink:href="#y"/><use transform="matrix(0.05,0,0,0.05,22.950000000000003,0)" xlink:href="#z"/><use transform="matrix(0.05,0,0,0.05,26.900000000000002,0)" xlink:href="#A"/><use transform="matrix(0.05,0,0,0.05,36.900000000000006,0)" xlink:href="#B"/><use transform="matrix(0.05,0,0,0.05,45.900000000000006,0)" xlink:href="#C"/><use transform="matrix(0.05,0,0,0.05,51.85,0)" xlink:href="#D"/><use transform="matrix(0.05,0,0,0.05,61.85,0)" xlink:href="#E"/></g><path d="M30 0v-248h187v28H63v79h144v27H63v87h162V0H30" id="F"/><path d="M30 0v-248h33v221h125V0H30" id="G"/><path d="M160-131c35 5 61 23 61 61C221 17 115-2 30 0v-248c76 3 177-17 177 60 0 33-19 50-47 57zm-97-11c50-1 110 9 110-42 0-47-63-36-110-37v79zm0 115c55-2 124 14 124-45 0-56-70-42-124-44v89" id="H"/><g id="b"><use transform="matrix(0.05,0,0,0.05,0,0)" xlink:href="#F"/><use transform="matrix(0.05,0,0,0.05,12,0)" xlink:href="#G"/><use transform="matrix(0.05,0,0,0.05,22,0)" xlink:href="#H"/></g><path d="M232-93c-1 65-40 97-104 97C67 4 28-28 28-90v-158h33c8 89-33 224 67 224 102 0 64-133 71-224h33v155" id="I"/><path d="M135-143c-3-34-86-38-87 0 15 53 115 12 119 90S17 21 10-45l28-5c4 36 97 45 98 0-10-56-113-15-118-90-4-57 82-63 122-42 12 7 21 19 24 35" id="J"/><path d="M100-194c63 0 86 42 84 106H49c0 40 14 67 53 68 26 1 43-12 49-29l28 8c-11 28-37 45-77 45C44 4 14-33 15-96c1-61 26-98 85-98zm52 81c6-60-76-77-97-28-3 7-6 17-6 28h103" id="K"/><path d="M114-163C36-179 61-72 57 0H25l-1-190h30c1 12-1 29 2 39 6-27 23-49 58-41v29" id="L"/><g id="c"><use transform="matrix(0.05,0,0,0.05,0,0)" xlink:href="#I"/><use transform="matrix(0.05,0,0,0.05,12.950000000000001,0)" xlink:href="#J"/><use transform="matrix(0.05,0,0,0.05,21.950000000000003,0)" xlink:href="#K"/><use transform="matrix(0.05,0,0,0.05,31.950000000000003,0)" xlink:href="#L"/><use transform="matrix(0.05,0,0,0.05,37.900000000000006,0)" xlink:href="#J"/></g><path d="M115-194c55 1 70 41 70 98S169 2 115 4C84 4 66-9 55-30l1 105H24l-1-265h31l2 30c10-21 28-34 59-34zm-8 174c40 0 45-34 45-75s-6-73-45-74c-42 0-51 32-51 76 0 43 10 73 51 73" id="M"/><path d="M84 4C-5 8 30-112 23-190h32v120c0 31 7 50 39 49 72-2 45-101 50-169h31l1 190h-30c-1-10 1-25-2-33-11 22-28 36-60 37" id="N"/><path d="M115-194c53 0 69 39 70 98 0 66-23 100-70 100C84 3 66-7 56-30L54 0H23l1-261h32v101c10-23 28-34 59-34zm-8 174c40 0 45-34 45-75 0-40-5-75-45-74-42 0-51 32-51 76 0 43 10 73 51 73" id="O"/><path d="M24 0v-261h32V0H24" id="P"/><path d="M96-169c-40 0-48 33-48 73s9 75 48 75c24 0 41-14 43-38l32 2c-6 37-31 61-74 61-59 0-76-41-82-99-10-93 101-131 147-64 4 7 5 14 7 22l-32 3c-4-21-16-35-41-35" id="Q"/><g id="d"><use transform="matrix(0.05,0,0,0.05,0,0)" xlink:href="#M"/><use transform="matrix(0.05,0,0,0.05,10,0)" xlink:href="#N"/><use transform="matrix(0.05,0,0,0.05,20,0)" xlink:href="#O"/><use transform="matrix(0.05,0,0,0.05,30,0)" xlink:href="#P"/><use transform="matrix(0.05,0,0,0.05,33.95,0)" xlink:href="#z"/><use transform="matrix(0.05,0,0,0.05,37.900000000000006,0)" xlink:href="#Q"/></g><path d="M59-47c-2 24 18 29 38 22v24C64 9 27 4 27-40v-127H5v-23h24l9-43h21v43h35v23H59v120" id="R"/><g id="e"><use transform="matrix(0.05,0,0,0.05,0,0)" xlink:href="#J"/><use transform="matrix(0.05,0,0,0.05,9,0)" xlink:href="#N"/><use transform="matrix(0.05,0,0,0.05,19,0)" xlink:href="#O"/><use transform="matrix(0.05,0,0,0.05,29,0)" xlink:href="#A"/><use transform="matrix(0.05,0,0,0.05,39,0)" xlink:href="#K"/><use transform="matrix(0.05,0,0,0.05,49,0)" xlink:href="#R"/></g><path d="M233-177c-1 41-23 64-60 70L243 0h-38l-65-103H63V0H30v-248c88 3 205-21 203 71zM63-129c60-2 137 13 137-47 0-61-80-42-137-45v92" id="S"/><path d="M100-194c62-1 85 37 85 99 1 63-27 99-86 99S16-35 15-95c0-66 28-99 85-99zM99-20c44 1 53-31 53-75 0-43-8-75-51-75s-53 32-53 75 10 74 51 75" id="T"/><g id="f"><use transform="matrix(0.05,0,0,0.05,0,0)" xlink:href="#S"/><use transform="matrix(0.05,0,0,0.05,12.950000000000001,0)" xlink:href="#T"/><use transform="matrix(0.05,0,0,0.05,22.950000000000003,0)" xlink:href="#N"/><use transform="matrix(0.05,0,0,0.05,32.95,0)" xlink:href="#R"/><use transform="matrix(0.05,0,0,0.05,37.95,0)" xlink:href="#K"/></g><path d="M54-142c48-35 137-8 131 61C196 18 31 33 14-55l32-4c7 23 22 37 52 37 35-1 51-22 54-58 4-55-73-65-99-34H22l8-134h141v27H59" id="U"/><path d="M126-127c33 6 58 20 58 59 0 88-139 92-164 29-3-8-5-16-6-25l32-3c6 27 21 44 54 44 32 0 52-15 52-46 0-38-36-46-79-43v-28c39 1 72-4 72-42 0-27-17-43-46-43-28 0-47 15-49 41l-32-3c6-42 35-63 81-64 48-1 79 21 79 65 0 36-21 52-52 59" id="V"/><g id="g"><use transform="matrix(0.05,0,0,0.05,0,0)" xlink:href="#U"/><use transform="matrix(0.05,0,0,0.05,10,0)" xlink:href="#V"/></g><path d="M212-179c-10-28-35-45-73-45-59 0-87 40-87 99 0 60 29 101 89 101 43 0 62-24 78-52l27 14C228-24 195 4 139 4 59 4 22-46 18-125c-6-104 99-153 187-111 19 9 31 26 39 46" id="W"/><path d="M101-251c82-7 93 87 43 132L82-64C71-53 59-42 53-27h129V0H18c2-99 128-94 128-182 0-28-16-43-45-43s-46 15-49 41l-32-3c6-41 34-60 81-64" id="X"/><g id="h"><use transform="matrix(0.05,0,0,0.05,0,0)" xlink:href="#F"/><use transform="matrix(0.05,0,0,0.05,12,0)" xlink:href="#W"/><use transform="matrix(0.05,0,0,0.05,24.950000000000003,0)" xlink:href="#X"/></g><path fill="#fff" d="M169-182c-1-43-94-46-97-3 18 66 151 10 154 114 3 95-165 93-204 36-6-8-10-19-12-30l50-8c3 46 112 56 116 5-17-69-150-10-154-114-4-87 153-88 188-35 5 8 8 18 10 28" id="Y"/><path fill="#fff" d="M185-48c-13 30-37 53-82 52C43 2 14-33 14-96s30-98 90-98c62 0 83 45 84 108H66c0 31 8 55 39 56 18 0 30-7 34-22zm-45-69c5-46-57-63-70-21-2 6-4 13-4 21h74" id="Z"/><path fill="#fff" d="M135-194c87-1 58 113 63 194h-50c-7-57 23-157-34-157-59 0-34 97-39 157H25l-1-190h47c2 12-1 28 3 38 12-26 28-41 61-42" id="aa"/><path fill="#fff" d="M115-3C79 11 28 4 28-45v-112H4v-33h27l15-45h31v45h36v33H77v99c-1 23 16 31 38 25v30" id="ab"/><path fill="#fff" d="M135-150c-39-12-60 13-60 57V0H25l-1-190h47c2 13-1 29 3 40 6-28 27-53 61-41v41" id="ac"/><path fill="#fff" d="M123 10C108 53 80 86 19 72V37c35 8 53-11 59-39L3-190h52l48 148c12-52 28-100 44-148h51" id="ad"/><path fill="#fff" d="M14-72v-43h91v43H14" id="ae"/><path fill="#fff" d="M101-251c68 0 84 54 84 127C185-50 166 4 99 4S15-52 14-124c-1-75 17-127 87-127zm-1 216c37-5 36-46 36-89s4-89-36-89c-39 0-36 45-36 89 0 43-3 85 36 89" id="af"/><path fill="#fff" d="M23 0v-37h61v-169l-59 37v-38l62-41h46v211h57V0H23" id="ag"/><g id="i"><use transform="matrix(0.05555555555555555,0,0,0.05555555555555555,0,0)" xlink:href="#Y"/><use transform="matrix(0.05555555555555555,0,0,0.05555555555555555,13.333333333333332,0)" xlink:href="#Z"/><use transform="matrix(0.05555555555555555,0,0,0.05555555555555555,24.444444444444443,0)" xlink:href="#aa"/><use transform="matrix(0.05555555555555555,0,0,0.05555555555555555,36.61111111111111,0)" xlink:href="#ab"/><use transform="matrix(0.05555555555555555,0,0,0.05555555555555555,43.222222222222214,0)" xlink:href="#ac"/><use transform="matrix(0.05555555555555555,0,0,0.05555555555555555,50.99999999999999,0)" xlink:href="#ad"/><use transform="matrix(0.05555555555555555,0,0,0.05555555555555555,62.11111111111109,0)" xlink:href="#ae"/><use transform="matrix(0.05555555555555555,0,0,0.05555555555555555,68.72222222222221,0)" xlink:href="#af"/><use transform="matrix(0.05555555555555555,0,0,0.05555555555555555,79.83333333333333,0)" xlink:href="#ag"/></g><path fill="#fff" d="M182-182c0 78-84 86-111 141h115V0H12c-6-101 99-100 120-180 1-22-12-31-33-32-23 0-32 14-35 34l-49-3c5-45 32-70 84-70 51 0 83 22 83 69" id="ah"/><g id="j"><use transform="matrix(0.05555555555555555,0,0,0.05555555555555555,0,0)" xlink:href="#Y"/><use transform="matrix(0.05555555555555555,0,0,0.05555555555555555,13.333333333333332,0)" xlink:href="#Z"/><use transform="matrix(0.05555555555555555,0,0,0.05555555555555555,24.444444444444443,0)" xlink:href="#aa"/><use transform="matrix(0.05555555555555555,0,0,0.05555555555555555,36.61111111111111,0)" xlink:href="#ab"/><use transform="matrix(0.05555555555555555,0,0,0.05555555555555555,43.222222222222214,0)" xlink:href="#ac"/><use transform="matrix(0.05555555555555555,0,0,0.05555555555555555,50.99999999999999,0)" xlink:href="#ad"/><use transform="matrix(0.05555555555555555,0,0,0.05555555555555555,62.11111111111109,0)" xlink:href="#ae"/><use transform="matrix(0.05555555555555555,0,0,0.05555555555555555,68.72222222222221,0)" xlink:href="#af"/><use transform="matrix(0.05555555555555555,0,0,0.05555555555555555,79.83333333333333,0)" xlink:href="#ah"/></g><path d="M205 0l-28-72H64L36 0H1l101-248h38L239 0h-34zm-38-99l-47-123c-12 45-31 82-46 123h93" id="ai"/><path d="M209 0H11v-25l151-195H24v-28h176v25L50-27h159V0" id="aj"/><g id="k"><use transform="matrix(0.05,0,0,0.05,0,0)" xlink:href="#ai"/><use transform="matrix(0.05,0,0,0.05,12,0)" xlink:href="#aj"/><use transform="matrix(0.05,0,0,0.05,22.950000000000003,0)" xlink:href="#C"/><use transform="matrix(0.05,0,0,0.05,28.900000000000002,0)" xlink:href="#E"/></g><path d="M108 0H70L1-190h34L89-25l56-165h34" id="ak"/><path d="M141-36C126-15 110 5 73 4 37 3 15-17 15-53c-1-64 63-63 125-63 3-35-9-54-41-54-24 1-41 7-42 31l-33-3c5-37 33-52 76-52 45 0 72 20 72 64v82c-1 20 7 32 28 27v20c-31 9-61-2-59-35zM48-53c0 20 12 33 32 33 41-3 63-29 60-74-43 2-92-5-92 41" id="al"/><g id="m"><use transform="matrix(0.05,0,0,0.05,0,0)" xlink:href="#M"/><use transform="matrix(0.05,0,0,0.05,10,0)" xlink:href="#L"/><use transform="matrix(0.05,0,0,0.05,15.949999999999998,0)" xlink:href="#z"/><use transform="matrix(0.05,0,0,0.05,19.9,0)" xlink:href="#ak"/><use transform="matrix(0.05,0,0,0.05,28.899999999999995,0)" xlink:href="#al"/><use transform="matrix(0.05,0,0,0.05,38.9,0)" xlink:href="#R"/><use transform="matrix(0.05,0,0,0.05,43.9,0)" xlink:href="#K"/></g><g id="n"><use transform="matrix(0.05,0,0,0.05,0,0)" xlink:href="#x"/><use transform="matrix(0.05,0,0,0.05,12.950000000000001,0)" xlink:href="#y"/><use transform="matrix(0.05,0,0,0.05,22.950000000000003,0)" xlink:href="#z"/><use transform="matrix(0.05,0,0,0.05,26.900000000000002,0)" xlink:href="#A"/><use transform="matrix(0.05,0,0,0.05,36.900000000000006,0)" xlink:href="#B"/><use transform="matrix(0.05,0,0,0.05,45.900000000000006,0)" xlink:href="#C"/><use transform="matrix(0.05,0,0,0.05,51.85,0)" xlink:href="#D"/><use transform="matrix(0.05,0,0,0.05,61.85,0)" xlink:href="#X"/></g><path fill="#fff" d="M128-127c34 4 56 21 59 58 7 91-148 94-172 28-4-9-6-17-7-26l51-5c1 24 16 35 40 36 23 0 39-12 38-36-1-31-31-36-65-34v-40c32 2 59-3 59-33 0-20-13-33-34-33s-33 13-35 32l-50-3c6-44 37-68 86-68 50 0 83 20 83 66 0 35-22 52-53 58" id="am"/><g id="o"><use transform="matrix(0.05555555555555555,0,0,0.05555555555555555,0,0)" xlink:href="#Y"/><use transform="matrix(0.05555555555555555,0,0,0.05555555555555555,13.333333333333332,0)" xlink:href="#Z"/><use transform="matrix(0.05555555555555555,0,0,0.05555555555555555,24.444444444444443,0)" xlink:href="#aa"/><use transform="matrix(0.05555555555555555,0,0,0.05555555555555555,36.61111111111111,0)" xlink:href="#ab"/><use transform="matrix(0.05555555555555555,0,0,0.05555555555555555,43.222222222222214,0)" xlink:href="#ac"/><use transform="matrix(0.05555555555555555,0,0,0.05555555555555555,50.99999999999999,0)" xlink:href="#ad"/><use transform="matrix(0.05555555555555555,0,0,0.05555555555555555,62.11111111111109,0)" xlink:href="#ae"/><use transform="matrix(0.05555555555555555,0,0,0.05555555555555555,68.72222222222221,0)" xlink:href="#af"/><use transform="matrix(0.05555555555555555,0,0,0.05555555555555555,79.83333333333333,0)" xlink:href="#am"/></g><path fill="#fff" d="M165-50V0h-47v-50H5v-38l105-160h55v161h33v37h-33zm-47-37l2-116L46-87h72" id="an"/><g id="p"><use transform="matrix(0.05555555555555555,0,0,0.05555555555555555,0,0)" xlink:href="#Y"/><use transform="matrix(0.05555555555555555,0,0,0.05555555555555555,13.333333333333332,0)" xlink:href="#Z"/><use transform="matrix(0.05555555555555555,0,0,0.05555555555555555,24.444444444444443,0)" xlink:href="#aa"/><use transform="matrix(0.05555555555555555,0,0,0.05555555555555555,36.61111111111111,0)" xlink:href="#ab"/><use transform="matrix(0.05555555555555555,0,0,0.05555555555555555,43.222222222222214,0)" xlink:href="#ac"/><use transform="matrix(0.05555555555555555,0,0,0.05555555555555555,50.99999999999999,0)" xlink:href="#ad"/><use transform="matrix(0.05555555555555555,0,0,0.05555555555555555,62.11111111111109,0)" xlink:href="#ae"/><use transform="matrix(0.05555555555555555,0,0,0.05555555555555555,68.72222222222221,0)" xlink:href="#af"/><use transform="matrix(0.05555555555555555,0,0,0.05555555555555555,79.83333333333333,0)" xlink:href="#an"/></g><g id="q"><use transform="matrix(0.05,0,0,0.05,0,0)" xlink:href="#ai"/><use transform="matrix(0.05,0,0,0.05,12,0)" xlink:href="#aj"/><use transform="matrix(0.05,0,0,0.05,22.950000000000003,0)" xlink:href="#C"/><use transform="matrix(0.05,0,0,0.05,28.900000000000002,0)" xlink:href="#X"/></g><g id="r"><use transform="matrix(0.05,0,0,0.05,0,0)" xlink:href="#S"/><use transform="matrix(0.05,0,0,0.05,12.950000000000001,0)" xlink:href="#K"/><use transform="matrix(0.05,0,0,0.05,22.950000000000003,0)" xlink:href="#y"/><use transform="matrix(0.05,0,0,0.05,32.95,0)" xlink:href="#z"/><use transform="matrix(0.05,0,0,0.05,36.900000000000006,0)" xlink:href="#T"/><use transform="matrix(0.05,0,0,0.05,46.900000000000006,0)" xlink:href="#A"/></g><g id="s"><use transform="matrix(0.05,0,0,0.05,0,0)" xlink:href="#F"/><use transform="matrix(0.05,0,0,0.05,12,0)" xlink:href="#P"/><use transform="matrix(0.05,0,0,0.05,15.949999999999998,0)" xlink:href="#al"/><use transform="matrix(0.05,0,0,0.05,25.950000000000003,0)" xlink:href="#J"/><use transform="matrix(0.05,0,0,0.05,34.95,0)" xlink:href="#R"/><use transform="matrix(0.05,0,0,0.05,39.95,0)" xlink:href="#z"/><use transform="matrix(0.05,0,0,0.05,43.900000000000006,0)" xlink:href="#Q"/></g><path d="M106-169C34-169 62-67 57 0H25v-261h32l-1 103c12-21 28-36 61-36 89 0 53 116 60 194h-32v-121c2-32-8-49-39-48" id="ao"/><g id="t"><use transform="matrix(0.05,0,0,0.05,0,0)" xlink:href="#W"/><use transform="matrix(0.05,0,0,0.05,12.950000000000001,0)" xlink:href="#al"/><use transform="matrix(0.05,0,0,0.05,22.950000000000003,0)" xlink:href="#Q"/><use transform="matrix(0.05,0,0,0.05,31.950000000000003,0)" xlink:href="#ao"/><use transform="matrix(0.05,0,0,0.05,41.95,0)" xlink:href="#K"/></g><path d="M240 0l2-218c-23 76-54 145-80 218h-23L58-218 59 0H30v-248h44l77 211c21-75 51-140 76-211h43V0h-30" id="ap"/><path d="M210-169c-67 3-38 105-44 169h-31v-121c0-29-5-50-35-48C34-165 62-65 56 0H25l-1-190h30c1 10-1 24 2 32 10-44 99-50 107 0 11-21 27-35 58-36 85-2 47 119 55 194h-31v-121c0-29-5-49-35-48" id="aq"/><path d="M85-194c31 0 48 13 60 33l-1-100h32l1 261h-30c-2-10 0-23-3-31C134-8 116 4 85 4 32 4 16-35 15-94c0-66 23-100 70-100zm9 24c-40 0-46 34-46 75 0 40 6 74 45 74 42 0 51-32 51-76 0-42-9-74-50-73" id="ar"/><g id="u"><use transform="matrix(0.05,0,0,0.05,0,0)" xlink:href="#ap"/><use transform="matrix(0.05,0,0,0.05,14.950000000000001,0)" xlink:href="#K"/><use transform="matrix(0.05,0,0,0.05,24.950000000000003,0)" xlink:href="#aq"/><use transform="matrix(0.05,0,0,0.05,39.900000000000006,0)" xlink:href="#Q"/><use transform="matrix(0.05,0,0,0.05,48.900000000000006,0)" xlink:href="#al"/><use transform="matrix(0.05,0,0,0.05,58.900000000000006,0)" xlink:href="#Q"/><use transform="matrix(0.05,0,0,0.05,67.9,0)" xlink:href="#ao"/><use transform="matrix(0.05,0,0,0.05,77.9,0)" xlink:href="#K"/><use transform="matrix(0.05,0,0,0.05,87.9,0)" xlink:href="#ar"/></g><path d="M33 0v-248h34V0H33" id="as"/><g id="v"><use transform="matrix(0.05,0,0,0.05,0,0)" xlink:href="#as"/><use transform="matrix(0.05,0,0,0.05,5,0)" xlink:href="#A"/><use transform="matrix(0.05,0,0,0.05,15,0)" xlink:href="#R"/><use transform="matrix(0.05,0,0,0.05,20,0)" xlink:href="#K"/><use transform="matrix(0.05,0,0,0.05,30,0)" xlink:href="#L"/><use transform="matrix(0.05,0,0,0.05,35.95,0)" xlink:href="#A"/><use transform="matrix(0.05,0,0,0.05,45.95,0)" xlink:href="#K"/><use transform="matrix(0.05,0,0,0.05,55.95,0)" xlink:href="#R"/></g><path d="M143 4C61 4 22-44 18-125c-5-107 100-154 193-111 17 8 29 25 37 43l-32 9c-13-25-37-40-76-40-61 0-88 39-88 99 0 61 29 100 91 101 35 0 62-11 79-27v-45h-74v-28h105v86C228-13 192 4 143 4" id="at"/><path d="M206 0h-36l-40-164L89 0H53L-1-190h32L70-26l43-164h34l41 164 42-164h31" id="au"/><path d="M179-190L93 31C79 59 56 82 12 73V49c39 6 53-20 64-50L1-190h34L92-34l54-156h33" id="av"/><g id="w"><use transform="matrix(0.05,0,0,0.05,0,0)" xlink:href="#at"/><use transform="matrix(0.05,0,0,0.05,14,0)" xlink:href="#al"/><use transform="matrix(0.05,0,0,0.05,24,0)" xlink:href="#R"/><use transform="matrix(0.05,0,0,0.05,29,0)" xlink:href="#K"/><use transform="matrix(0.05,0,0,0.05,39,0)" xlink:href="#au"/><use transform="matrix(0.05,0,0,0.05,51.95,0)" xlink:href="#al"/><use transform="matrix(0.05,0,0,0.05,61.95,0)" xlink:href="#av"/></g></defs></g></svg>
